<?xml version="1.0" encoding="utf-8"?>
<!-- Generator: Adobe Illustrator 22.1.0, SVG Export Plug-In . SVG Version: 6.00 Build 0)  -->
<svg version="1.1" id="Layer_1" xmlns="http://www.w3.org/2000/svg" xmlns:xlink="http://www.w3.org/1999/xlink" x="0px" y="0px"
	 viewBox="0 0 80 95.3" style="enable-background:new 0 0 80 95.3;" xml:space="preserve">
<style type="text/css">
	.st0{clip-path:url(#SVGID_2_);fill:#D7143F;}
	.st1{fill:#D7143F;}
	.st2{clip-path:url(#SVGID_4_);fill:#D7143F;}
	.st3{clip-path:url(#SVGID_6_);fill:#D7143F;}
	.st4{clip-path:url(#SVGID_8_);fill:#D7143F;}
</style>
<g>
	<defs>
		<rect id="SVGID_1_" y="-0.1" width="79.9" height="95.6"/>
	</defs>
	<clipPath id="SVGID_2_">
		<use xlink:href="#SVGID_1_"  style="overflow:visible;"/>
	</clipPath>
	<path class="st0" d="M73.9,75.1l-5.8,0l-9.6-13.7c0-0.1-0.1-0.1-0.2,0c0,0-0.1,0.1-0.1,0.1v13.6h-5.1V43.4h8.3c2-0.1,4,0.5,5.6,1.7
		c4.3,2.9,5.3,8.8,2.4,13c-0.7,1.1-1.7,2-2.9,2.6c-0.6,0.4-1.3,0.5-2,0.6c-0.1,0-0.3,0.1-0.3,0.1c0,0,0,0,0,0.1L73.9,75.1z
		 M73.5,23.5L70,27l-0.1-0.2l-0.2-0.2l-0.2-0.2l-0.2-0.2L68.9,26l-0.3-0.2l-0.3-0.2l-0.3-0.1l-0.3-0.1l-0.3-0.1l-0.3-0.1L67,25.1
		l-0.3-0.1L66.4,25l-0.3,0l-0.3,0l-0.3,0l-0.3,0l-0.3,0l-0.3,0l-0.3,0.1L64,25.1l-0.3,0.1l-0.3,0.1l-0.3,0.1l-0.3,0.1l-0.3,0.1
		l-0.3,0.2L62.1,26l-0.2,0.2l-0.2,0.2l-0.2,0.2l-0.2,0.2l-0.2,0.2l-0.2,0.2l-0.2,0.3l-0.2,0.3l-0.2,0.3L60,28.4l-0.1,0.3l-0.1,0.3
		l-0.1,0.3l-0.1,0.3l-0.1,0.3l-0.1,0.3l-0.1,0.3l0,0.3l0,0.3l0,0.3l0,0.3l0,0.3l0,0.3l0.1,0.3l0.1,0.3l0.1,0.3l0.1,0.3l0.1,0.3
		l0.1,0.3l0.1,0.3l0.2,0.3l0.2,0.3l0.2,0.3l0.2,0.3l0.2,0.2l0.2,0.2l0.2,0.2l0.2,0.2l0.2,0.2l0.2,0.2l0.3,0.2l0.3,0.2l0.3,0.1
		l0.3,0.1l0.3,0.1l0.3,0.1l0.3,0.1l0.3,0.1l0.3,0.1l0.3,0l0.3,0l0.3,0l0.3,0l0.3,0l0.3,0l0.3-0.1l0.3-0.1l0.3-0.1l0.3-0.1l0.3-0.1
		l0.3-0.1l0.3-0.1l0.3-0.2l0.3-0.2l0.2-0.2l0.2-0.2l0.2-0.2l0.2-0.2l0.1-0.1l3.5,3.5l-0.3,0.3l-0.4,0.4l-0.4,0.3l-0.5,0.3L71.3,41
		l-0.5,0.3l-0.5,0.2l-0.5,0.2l-0.5,0.2l-0.5,0.2l-0.5,0.1l-0.5,0.1l-0.5,0.1l-0.6,0.1l-0.6,0l-0.6,0l-0.6,0l-0.6,0l-0.6-0.1
		l-0.5-0.1l-0.5-0.1l-0.5-0.1l-0.5-0.2l-0.5-0.2l-0.5-0.2l-0.5-0.2L59.7,41l-0.5-0.3l-0.5-0.3l-0.4-0.3l-0.4-0.4l-0.4-0.4l-0.4-0.4
		l-0.4-0.4l-0.3-0.4l-0.3-0.4l-0.3-0.5l-0.3-0.5l-0.3-0.5L55,35.7l-0.2-0.5l-0.2-0.5l-0.1-0.5l-0.1-0.5l-0.1-0.5l-0.1-0.5l0-0.5
		l0-0.5l0-0.5l0-0.5l0.1-0.5l0.1-0.5l0.1-0.5l0.1-0.5l0.2-0.5l0.2-0.5l0.2-0.5l0.3-0.5l0.3-0.5l0.3-0.5l0.3-0.4l0.3-0.4l0.4-0.4
		l0.4-0.4l0.4-0.4l0.4-0.4l0.4-0.3l0.5-0.3l0.5-0.3l0.5-0.3l0.5-0.2l0.5-0.2l0.5-0.2l0.5-0.2l0.5-0.1l0.5-0.1l0.5-0.1l0.6-0.1l0.6,0
		l0.6,0l0.6,0l0.6,0l0.6,0.1l0.5,0.1l0.5,0.1l0.5,0.1l0.5,0.2l0.5,0.2l0.5,0.2l0.5,0.2l0.5,0.3l0.5,0.3l0.5,0.3l0.4,0.3l0.4,0.4
		L73.5,23.5z M55.4,40.8h-5.4l-3.4-7.3H33.6l-3.5,7.3h-5.4L40,8.4L55.4,40.8z M28.7,55.6l0-0.5l0-0.5l0.1-0.5l0.1-0.5l0.1-0.5
		l0.1-0.5l0.2-0.5l0.2-0.5l0.2-0.5l0.2-0.5l0.3-0.5l0.3-0.5l0.3-0.4l0.3-0.4l0.4-0.4l0.4-0.4l0.4-0.4l0.4-0.4l0.4-0.3l0.5-0.3
		l0.5-0.3l0.5-0.3l0.5-0.2l0.5-0.2l0.5-0.2l0.5-0.2l0.5-0.1l0.5-0.1l0.6-0.1l0.6-0.1l0.6,0l0.6,0l0.6,0l0.6,0l0.6,0.1l0.5,0.1
		l0.5,0.1l0.5,0.1l0.5,0.2l0.5,0.2l0.5,0.2l0.5,0.2l0.5,0.3l0.5,0.3l0.5,0.3l0.4,0.3l0.4,0.4l0.4,0.4l0.4,0.4l0.4,0.4l0.3,0.4
		l0.3,0.4l0.3,0.5l0.3,0.5l0.3,0.5l0.2,0.5l0.2,0.5l0.2,0.5l0.1,0.5l0.1,0.5l0.1,0.5l0.1,0.5l0,0.5l0,0.5l0,0.5l0,0.5l-0.1,0.5
		l-0.1,0.5L51,58.3l-0.1,0.5l-0.2,0.5l-0.2,0.5l-0.2,0.5L50,60.8l-0.3,0.5l-0.3,0.5l-0.3,0.4l-0.3,0.4L48.4,63l-0.4,0.4l-0.4,0.4
		l-0.4,0.4l-0.4,0.3l-0.5,0.3l-0.5,0.3l-0.5,0.3l-0.5,0.2l-0.5,0.2l-0.5,0.2l-0.5,0.2l-0.5,0.1l-0.5,0.1l-0.5,0.1l-0.6,0.1l-0.6,0
		l-0.6,0l-0.6,0l-0.6,0l-0.6-0.1l-0.6-0.1l-0.5-0.1l-0.5-0.1l-0.5-0.2l-0.5-0.2l-0.5-0.2l-0.5-0.2l-0.5-0.3l-0.5-0.3l-0.5-0.3
		l-0.4-0.3l-0.4-0.4L32,63.4L31.6,63l-0.4-0.4l-0.3-0.4l-0.3-0.4l-0.3-0.5L30,60.8l-0.2-0.5l-0.2-0.5l-0.2-0.5l-0.2-0.5L29,58.3
		l-0.1-0.5l-0.1-0.5l-0.1-0.5l0-0.5L28.7,55.6z M79.9,79.8V-0.1H46.7v3.4H33.2v-3.4H0v79.9H79.9z"/>
</g>
<polygon class="st1" points="35.7,28.9 44.3,28.9 40,19.8 "/>
<polygon class="st1" points="40,49.1 39.7,49.1 39.4,49.1 39.1,49.1 38.8,49.2 38.5,49.3 38.2,49.4 37.9,49.5 37.7,49.6 37.4,49.7 
	37.1,49.8 36.8,50 36.6,50.2 36.3,50.3 36.1,50.5 35.9,50.8 35.7,51 35.4,51.2 35.2,51.4 35.1,51.7 34.9,52 34.7,52.2 34.6,52.5 
	34.4,52.8 34.3,53.1 34.2,53.4 34.1,53.7 34,54 34,54.3 33.9,54.6 33.9,54.9 33.9,55.2 33.8,55.6 33.9,55.9 33.9,56.2 33.9,56.5 
	34,56.8 34,57.1 34.1,57.4 34.2,57.7 34.3,58 34.4,58.3 34.6,58.6 34.7,58.9 34.9,59.2 35.1,59.4 35.2,59.7 35.4,59.9 35.7,60.1 
	35.9,60.4 36.1,60.6 36.3,60.8 36.6,60.9 36.8,61.1 37.1,61.3 37.4,61.4 37.7,61.5 37.9,61.7 38.2,61.8 38.5,61.8 38.8,61.9 
	39.1,62 39.4,62 39.7,62 40,62 40.3,62 40.6,62 40.9,62 41.2,61.9 41.5,61.8 41.8,61.8 42.1,61.7 42.4,61.5 42.7,61.4 42.9,61.3 
	43.2,61.1 43.5,60.9 43.7,60.8 44,60.6 44.2,60.4 44.4,60.1 44.6,59.9 44.8,59.7 45,59.4 45.2,59.2 45.3,58.9 45.5,58.6 45.6,58.3 
	45.7,58 45.9,57.7 46,57.4 46,57.1 46.1,56.8 46.1,56.5 46.2,56.2 46.2,55.9 46.2,55.6 46.2,55.2 46.2,54.9 46.1,54.6 46.1,54.3 
	46,54 46,53.7 45.9,53.4 45.7,53.1 45.6,52.8 45.5,52.5 45.3,52.2 45.2,52 45,51.7 44.8,51.4 44.6,51.2 44.4,51 44.2,50.8 44,50.5 
	43.7,50.3 43.5,50.2 43.2,50 42.9,49.8 42.7,49.7 42.4,49.6 42.1,49.5 41.8,49.4 41.5,49.3 41.2,49.2 40.9,49.1 40.6,49.1 
	40.3,49.1 "/>
<g>
	<defs>
		<rect id="SVGID_3_" y="-0.1" width="79.9" height="95.6"/>
	</defs>
	<clipPath id="SVGID_4_">
		<use xlink:href="#SVGID_3_"  style="overflow:visible;"/>
	</clipPath>
	<path class="st2" d="M66.2,53c0.1,2.3-1.6,4.3-3.9,4.7h-4.1v-9.3h4.1C64.6,48.6,66.3,50.7,66.2,53"/>
	<path class="st2" d="M6.5,87.2v1.5c-0.7-0.6-1.5-0.9-2.2-0.9c-0.8,0-1.6,0.3-2.1,0.9c-0.6,0.6-0.9,1.3-0.9,2.2
		c0,0.9,0.3,1.6,0.9,2.2C2.7,93.7,3.4,94,4.3,94c0.4,0,0.8-0.1,1.1-0.2c0.2-0.1,0.3-0.2,0.5-0.3c0.2-0.1,0.4-0.3,0.6-0.4v1.5
		c-0.7,0.4-1.5,0.6-2.2,0.6c-1.2,0-2.2-0.4-3-1.2c-0.8-0.8-1.2-1.8-1.2-3c0-1,0.3-2,1-2.8c0.9-1,2-1.5,3.3-1.5
		C5.1,86.6,5.8,86.8,6.5,87.2"/>
	<path class="st2" d="M9,90.8c0,0.9,0.3,1.7,0.9,2.2c0.6,0.6,1.3,0.9,2.1,0.9c0.9,0,1.6-0.3,2.2-0.9c0.6-0.6,0.9-1.3,0.9-2.2
		c0-0.9-0.3-1.6-0.9-2.2c-0.6-0.6-1.3-0.9-2.2-0.9c-0.9,0-1.6,0.3-2.2,0.9C9.3,89.2,9,90,9,90.8 M7.8,90.8c0-1.2,0.4-2.2,1.3-3
		c0.8-0.8,1.9-1.2,3-1.2c1.2,0,2.2,0.4,3,1.3c0.8,0.8,1.3,1.8,1.3,3c0,1.2-0.4,2.2-1.3,3c-0.8,0.8-1.9,1.2-3.1,1.2
		c-1.1,0-2-0.4-2.9-1.1C8.2,93.2,7.8,92.1,7.8,90.8"/>
</g>
<polygon class="st1" points="18.1,95 19.4,95 19.4,89.2 25.3,95.5 25.3,86.8 24.1,86.8 24.1,92.5 18.1,86.2 "/>
<g>
	<defs>
		<rect id="SVGID_5_" y="-0.1" width="79.9" height="95.6"/>
	</defs>
	<clipPath id="SVGID_6_">
		<use xlink:href="#SVGID_5_"  style="overflow:visible;"/>
	</clipPath>
	<path class="st3" d="M32.2,88l-1,0.6c-0.2-0.3-0.4-0.5-0.5-0.6c-0.2-0.1-0.4-0.2-0.7-0.2c-0.3,0-0.6,0.1-0.9,0.3
		c-0.2,0.2-0.3,0.4-0.3,0.7c0,0.4,0.3,0.7,0.9,1l0.8,0.3c0.7,0.3,1.2,0.6,1.5,1c0.3,0.4,0.5,0.9,0.5,1.4c0,0.8-0.3,1.4-0.8,1.9
		c-0.5,0.5-1.1,0.7-1.9,0.7c-0.7,0-1.3-0.2-1.8-0.6c-0.5-0.4-0.7-1-0.9-1.8l1.3-0.3c0.1,0.5,0.2,0.8,0.3,1c0.3,0.4,0.6,0.5,1.1,0.5
		c0.4,0,0.7-0.1,1-0.4c0.3-0.3,0.4-0.6,0.4-1c0-0.2,0-0.3-0.1-0.4c0-0.1-0.1-0.3-0.2-0.4c-0.1-0.1-0.2-0.2-0.4-0.3
		c-0.1-0.1-0.3-0.2-0.5-0.3l-0.8-0.3c-1.1-0.5-1.7-1.2-1.7-2.1c0-0.6,0.2-1.1,0.7-1.5c0.5-0.4,1.1-0.6,1.8-0.6
		C30.9,86.6,31.6,87.1,32.2,88"/>
	<path class="st3" d="M35.3,86.8v4.9c0,0.7,0.1,1.2,0.3,1.5c0.3,0.5,0.8,0.7,1.5,0.7c0.6,0,1.1-0.2,1.5-0.7c0.2-0.3,0.3-0.8,0.3-1.5
		v-4.9h1.2V92c0,0.9-0.3,1.6-0.8,2.1c-0.6,0.6-1.4,0.9-2.2,0.9c-0.9,0-1.6-0.3-2.2-0.9C34.3,93.6,34,92.9,34,92v-5.3H35.3z"/>
</g>
<polygon class="st1" points="43.5,86.8 43.5,93.8 45.9,93.8 45.9,95 42.3,95 42.3,86.8 "/>
<polygon class="st1" points="49,87.9 49,95 47.8,95 47.8,87.9 45.9,87.9 45.9,86.8 50.9,86.8 50.9,87.9 "/>
<path class="st1" d="M56.1,91.8L54.9,89l-1.3,2.8H56.1z M56.6,93h-3.5l-0.9,2h-1.3l4.1-8.7l3.9,8.7h-1.4L56.6,93z"/>
<polygon class="st1" points="60,95 61.3,95 61.3,89.2 67.3,95.5 67.3,86.8 66,86.8 66,92.5 60,86.2 "/>
<polygon class="st1" points="71.7,87.9 71.7,95 70.5,95 70.5,87.9 68.6,87.9 68.6,86.8 73.6,86.8 73.6,87.9 "/>
<g>
	<defs>
		<rect id="SVGID_7_" y="-0.1" width="79.9" height="95.6"/>
	</defs>
	<clipPath id="SVGID_8_">
		<use xlink:href="#SVGID_7_"  style="overflow:visible;"/>
	</clipPath>
	<path class="st4" d="M79.5,88l-1,0.6c-0.2-0.3-0.4-0.5-0.5-0.6c-0.2-0.1-0.4-0.2-0.7-0.2c-0.3,0-0.6,0.1-0.9,0.3
		c-0.2,0.2-0.3,0.4-0.3,0.7c0,0.4,0.3,0.7,0.9,1l0.8,0.3c0.7,0.3,1.2,0.6,1.5,1c0.3,0.4,0.5,0.9,0.5,1.4c0,0.8-0.3,1.4-0.8,1.9
		c-0.5,0.5-1.1,0.7-1.9,0.7c-0.7,0-1.3-0.2-1.8-0.6c-0.5-0.4-0.7-1-0.9-1.8l1.3-0.3c0.1,0.5,0.2,0.8,0.3,1c0.3,0.4,0.6,0.5,1.1,0.5
		c0.4,0,0.7-0.1,1-0.4c0.3-0.3,0.4-0.6,0.4-1c0-0.2,0-0.3-0.1-0.4c0-0.1-0.1-0.3-0.2-0.4c-0.1-0.1-0.2-0.2-0.4-0.3
		c-0.1-0.1-0.3-0.2-0.5-0.3l-0.8-0.3c-1.1-0.5-1.7-1.2-1.7-2.1c0-0.6,0.2-1.1,0.7-1.5c0.5-0.4,1.1-0.6,1.8-0.6
		C78.2,86.6,79,87.1,79.5,88"/>
</g>
</svg>
